<svg width="21" height="20" viewBox="0 0 21 20" fill="none" xmlns="http://www.w3.org/2000/svg" stroke="currentColor">
<path d="M16.625 18.3333C17.3154 18.3333 17.875 17.7737 17.875 17.0833C17.875 16.393 17.3154 15.8333 16.625 15.8333C15.9346 15.8333 15.375 16.393 15.375 17.0833C15.375 17.7737 15.9346 18.3333 16.625 18.3333Z" fill="#B4B4B4" stroke="currentColor" stroke-width="1.5" stroke-linecap="round" stroke-linejoin="round"/>
<path d="M8.29175 18.3333C8.9821 18.3333 9.54175 17.7737 9.54175 17.0833C9.54175 16.393 8.9821 15.8333 8.29175 15.8333C7.60139 15.8333 7.04175 16.393 7.04175 17.0833C7.04175 17.7737 7.60139 18.3333 8.29175 18.3333Z" fill="#B4B4B4" stroke="currentColor" stroke-width="1.5" stroke-linecap="round" stroke-linejoin="round"/>
<path d="M4.54175 3.33332H18.7084L17.0417 12.5H6.20841L4.54175 3.33332ZM4.54175 3.33332C4.40286 2.77777 3.70841 1.66666 2.04175 1.66666" stroke="currentColor" stroke-width="1.5" stroke-linecap="round" stroke-linejoin="round"/>
<path d="M17.0416 12.5H6.20825H4.73389C3.24697 12.5 2.45825 13.151 2.45825 14.1667C2.45825 15.1823 3.24697 15.8333 4.73389 15.8333H16.6249" stroke="currentColor" stroke-width="1.5" stroke-linecap="round" stroke-linejoin="round"/>
</svg>
